<svg width="120" height="80" viewBox="0 0 120 80" fill="none" xmlns="http://www.w3.org/2000/svg">
<path fill-rule="evenodd" clip-rule="evenodd" d="M4.48385 0H4.15052C3.01074 0 1.97315 0.461873 1.22043 1.20513C0.467708 1.94839 0 2.97303 0 4.0985V79.9954H8.63969V4.0985C8.63969 2.97299 8.17196 1.94842 7.41927 1.20513C6.66657 0.461846 5.62892 0 4.48918 0H4.48385ZM120 51.523H111.36V80H120V51.523ZM12.5107 69.1599H107.495V61.9876H12.5107V69.1599ZM107.489 50.3977V49.6067C107.489 48.2529 106.93 47.0213 106.021 46.1293C105.118 45.2374 103.871 44.68 102.5 44.68L17.4999 44.6853C16.1289 44.6853 14.8817 45.2374 13.9784 46.1346C13.0752 47.0265 12.5107 48.2582 12.5107 49.612V58.1647H107.495V50.3978L107.489 50.3977ZM33.3608 31.3705H24.5167C23.1942 31.3705 21.9953 31.9067 21.1243 32.7667C20.2534 33.6267 19.7104 34.8159 19.7104 36.1165C19.7104 37.4225 20.2534 38.6064 21.1243 39.4664C21.9953 40.3265 23.1996 40.8626 24.5167 40.8626H33.3608C34.6834 40.8626 35.8823 40.3264 36.7532 39.4664C37.6242 38.6064 38.1671 37.4172 38.1671 36.1165C38.1671 34.8105 37.6241 33.6267 36.7532 32.7667C35.8823 31.9066 34.678 31.3705 33.3608 31.3705Z" fill="#E7EEB0"/>
<rect x="19" y="31" width="20" height="10" fill="#009899"/>
<path d="M100 40C100 34.7471 98.9654 29.5457 96.9552 24.6927C94.945 19.8396 91.9986 15.4301 88.2843 11.7157C84.5699 8.00138 80.1604 5.05501 75.3073 3.04482C70.4543 1.03463 65.2529 -2.2961e-07 60 0C54.7471 2.29611e-07 49.5457 1.03463 44.6927 3.04482C39.8396 5.05501 35.4301 8.00139 31.7157 11.7157C28.0014 15.4301 25.055 19.8396 23.0448 24.6927C21.0346 29.5457 20 34.7471 20 40L60 40H100Z" fill="#F9FBEB"/>
</svg>
