<svg width="26" height="28" viewBox="0 0 26 28" fill="none" xmlns="http://www.w3.org/2000/svg">
<path d="M24 26C24 24.1392 24 23.2089 23.7632 22.4518C23.2299 20.7473 21.8544 19.4134 20.0966 18.8963C19.3159 18.6667 18.3564 18.6667 16.4375 18.6667H9.56251C7.6436 18.6667 6.68415 18.6667 5.90343 18.8963C4.14563 19.4134 2.77006 20.7473 2.23683 22.4518C2 23.2089 2 24.1392 2 26M19.1875 8C19.1875 11.3137 16.4173 14 13 14C9.58274 14 6.8125 11.3137 6.8125 8C6.8125 4.68629 9.58274 2 13 2C16.4173 2 19.1875 4.68629 19.1875 8Z" stroke="#009899" stroke-width="2.5" stroke-linecap="round" stroke-linejoin="round"/>
</svg>
