<svg width="23" height="31" viewBox="0 0 23 31" fill="none" xmlns="http://www.w3.org/2000/svg">
<path d="M7.90017 10.6678C8.2834 12.7064 9.01198 14.716 10.108 16.6143C11.204 18.5127 12.5801 20.1484 14.1539 21.4996C14.2893 21.6158 14.357 21.6739 14.4476 21.7289C14.7696 21.9244 15.2182 21.9662 15.5708 21.8336C15.67 21.7963 15.7603 21.7442 15.9409 21.6399C16.4932 21.321 16.7694 21.1616 17.0265 21.0778C17.9964 20.7621 19.0612 21.0475 19.7432 21.8058C19.9241 22.0069 20.0835 22.283 20.4024 22.8354L20.5802 23.1432C21.0649 23.9828 21.3073 24.4026 21.3919 24.8064C21.5601 25.6094 21.3363 26.4446 20.7891 27.0559C20.514 27.3633 20.0942 27.6057 19.2546 28.0904L19.0055 28.2342C18.1688 28.7173 17.7505 28.9588 17.2343 29.0906C16.6616 29.2369 15.8346 29.2308 15.2641 29.0761C14.75 28.9367 14.4251 28.7426 13.7753 28.3546C10.2832 26.2691 7.25906 23.2894 5.08091 19.5167C2.90277 15.7441 1.83433 11.6352 1.7743 7.5682C1.76313 6.81142 1.75755 6.43303 1.89388 5.91809C2.04517 5.34669 2.45338 4.62744 2.86639 4.20459C3.23859 3.82351 3.65695 3.58197 4.49368 3.09889L4.74272 2.9551C5.58232 2.47036 6.00212 2.22799 6.40589 2.14341C7.20891 1.97521 8.04405 2.19899 8.65538 2.74616C8.96277 3.02129 9.20515 3.44109 9.68989 4.28069L9.86764 4.58856C10.1865 5.14089 10.346 5.41705 10.4297 5.67422C10.7454 6.64407 10.4601 7.70887 9.70174 8.39093C9.50065 8.57179 9.22449 8.73124 8.67216 9.05012C8.49157 9.15439 8.40127 9.20652 8.31935 9.2738C8.02825 9.51287 7.84018 9.92222 7.8484 10.2988C7.85072 10.4048 7.8672 10.4925 7.90017 10.6678Z" stroke="#009899" stroke-width="2.5" stroke-linecap="round" stroke-linejoin="round"/>
</svg>
